# xmcd CD database file
#
# Track frame offsets:
#	187
#	26022
#	99675
#	122412
#	160392
#
# Disc length: 2954 seconds
#
# Revision: 11
# Processed by: cddbd v1.5.2PL0 Copyright (c) Steve Scherf et al.
# Submitted via: CDex 1.81
#
DISCID=380b8805
DTITLE=Pat Metheny Group - Travels [Live] [Disc 2]
DYEAR=1983
DGENRE=Jazz
TTITLE0=Extradition
TTITLE1=Goin' Ahead - As Falls Wichita, So Falls Wichita Falls
TTITLE2=Travels
TTITLE3=Song For Bilbao
TTITLE4=San Lorenzo
EXTD=Recorded July, October, November 1982;\nRecordings taken from concerts in:\nDallas (TX), Philadelphia (PA), Hartford (CT), Sacramento (CA) and Nacogdoches (TX);\nProduced by Pat Metheny and Manfred Eicher;\nTrack 2,3,6 [CD1) and 1,2,4 [CD2) composed b
EXTD=y Pat Metheny;\nTrack 1,4,5 [CD1) and 3,5 [CD2) by Pat Metheny and Lyle Mays;\nPat Metheny - Guitars, Guitar Synthesizer;\nLyle Mays - Piano, Synthesizer, Organ, Autoharp, Synclavier;\nSteve Rodby - Acoustic and Electric Bass, Bass Synthesizer;\nDan Got
EXTD=tlieb - Drums;\nNana Vasconcelos (special guest) - Percussion, Voice, Berimbau - YEAR: 1983
EXTT0=
EXTT1=
EXTT2=
EXTT3=
EXTT4=
PLAYORDER=
